<mxfile host="app.diagrams.net" modified="2023-11-06T05:17:37.490Z" agent="Mozilla/5.0 (Windows NT 10.0; Win64; x64) AppleWebKit/537.36 (KHTML, like Gecko) Chrome/116.0.0.0 Safari/537.36 OPR/102.0.0.0" etag="SAoHZcXQFrPw-IJDKb-m" version="22.0.8" type="github">
  <diagram name="Page-1" id="G5fqbgJo-eo-QwBhlY8V">
    <mxGraphModel dx="1009" dy="503" grid="1" gridSize="10" guides="1" tooltips="1" connect="1" arrows="1" fold="1" page="1" pageScale="1" pageWidth="850" pageHeight="1100" math="0" shadow="0">
      <root>
        <mxCell id="0" />
        <mxCell id="1" parent="0" />
        <mxCell id="3BTfPKExKE7HtDIBicMZ-1" value="" style="swimlane;startSize=0;verticalAlign=middle;horizontal=1;" vertex="1" parent="1">
          <mxGeometry x="100" y="20" width="720" height="480" as="geometry" />
        </mxCell>
        <mxCell id="3BTfPKExKE7HtDIBicMZ-7" value="Login" style="ellipse;whiteSpace=wrap;html=1;align=center;" vertex="1" parent="3BTfPKExKE7HtDIBicMZ-1">
          <mxGeometry x="20" y="190" width="100" height="40" as="geometry" />
        </mxCell>
        <mxCell id="3BTfPKExKE7HtDIBicMZ-10" value="include" style="edgeStyle=orthogonalEdgeStyle;rounded=0;orthogonalLoop=1;jettySize=auto;html=1;exitX=0;exitY=0.5;exitDx=0;exitDy=0;dashed=1;" edge="1" parent="3BTfPKExKE7HtDIBicMZ-1" source="3BTfPKExKE7HtDIBicMZ-9" target="3BTfPKExKE7HtDIBicMZ-7">
          <mxGeometry relative="1" as="geometry" />
        </mxCell>
        <mxCell id="3BTfPKExKE7HtDIBicMZ-9" value="Logout" style="ellipse;whiteSpace=wrap;html=1;align=center;" vertex="1" parent="3BTfPKExKE7HtDIBicMZ-1">
          <mxGeometry x="190" y="190" width="100" height="40" as="geometry" />
        </mxCell>
        <mxCell id="3BTfPKExKE7HtDIBicMZ-11" value="View Book" style="ellipse;whiteSpace=wrap;html=1;align=center;" vertex="1" parent="3BTfPKExKE7HtDIBicMZ-1">
          <mxGeometry x="180" y="80" width="100" height="40" as="geometry" />
        </mxCell>
        <mxCell id="3BTfPKExKE7HtDIBicMZ-12" value="View Feedback" style="ellipse;whiteSpace=wrap;html=1;align=center;" vertex="1" parent="3BTfPKExKE7HtDIBicMZ-1">
          <mxGeometry x="140" y="420" width="100" height="40" as="geometry" />
        </mxCell>
        <mxCell id="3BTfPKExKE7HtDIBicMZ-13" value="View Order" style="ellipse;whiteSpace=wrap;html=1;align=center;" vertex="1" parent="3BTfPKExKE7HtDIBicMZ-1">
          <mxGeometry x="180" y="300" width="100" height="40" as="geometry" />
        </mxCell>
        <mxCell id="3BTfPKExKE7HtDIBicMZ-15" value="include" style="endArrow=classic;html=1;rounded=0;entryX=1;entryY=0.5;entryDx=0;entryDy=0;exitX=0;exitY=0.5;exitDx=0;exitDy=0;dashed=1;verticalAlign=middle;" edge="1" parent="3BTfPKExKE7HtDIBicMZ-1" source="3BTfPKExKE7HtDIBicMZ-11" target="3BTfPKExKE7HtDIBicMZ-7">
          <mxGeometry x="0.0066" y="3" width="50" height="50" relative="1" as="geometry">
            <mxPoint x="300" y="260" as="sourcePoint" />
            <mxPoint x="350" y="210" as="targetPoint" />
            <mxPoint as="offset" />
          </mxGeometry>
        </mxCell>
        <mxCell id="3BTfPKExKE7HtDIBicMZ-16" value="include" style="endArrow=classic;html=1;rounded=0;exitX=0;exitY=0.5;exitDx=0;exitDy=0;entryX=1;entryY=0.5;entryDx=0;entryDy=0;dashed=1;" edge="1" parent="3BTfPKExKE7HtDIBicMZ-1" source="3BTfPKExKE7HtDIBicMZ-13" target="3BTfPKExKE7HtDIBicMZ-7">
          <mxGeometry width="50" height="50" relative="1" as="geometry">
            <mxPoint x="300" y="260" as="sourcePoint" />
            <mxPoint x="350" y="210" as="targetPoint" />
          </mxGeometry>
        </mxCell>
        <mxCell id="3BTfPKExKE7HtDIBicMZ-17" value="include" style="endArrow=classic;html=1;rounded=0;exitX=0;exitY=0.5;exitDx=0;exitDy=0;entryX=1;entryY=0.5;entryDx=0;entryDy=0;dashed=1;" edge="1" parent="3BTfPKExKE7HtDIBicMZ-1" source="3BTfPKExKE7HtDIBicMZ-12" target="3BTfPKExKE7HtDIBicMZ-7">
          <mxGeometry width="50" height="50" relative="1" as="geometry">
            <mxPoint x="300" y="260" as="sourcePoint" />
            <mxPoint x="350" y="210" as="targetPoint" />
          </mxGeometry>
        </mxCell>
        <mxCell id="3BTfPKExKE7HtDIBicMZ-18" value="Delete Feeback" style="ellipse;whiteSpace=wrap;html=1;align=center;" vertex="1" parent="3BTfPKExKE7HtDIBicMZ-1">
          <mxGeometry x="520" y="420" width="100" height="40" as="geometry" />
        </mxCell>
        <mxCell id="3BTfPKExKE7HtDIBicMZ-19" value="extends" style="endArrow=classic;html=1;rounded=0;exitX=0;exitY=0.5;exitDx=0;exitDy=0;entryX=1;entryY=0.5;entryDx=0;entryDy=0;dashed=1;" edge="1" parent="3BTfPKExKE7HtDIBicMZ-1" source="3BTfPKExKE7HtDIBicMZ-18" target="3BTfPKExKE7HtDIBicMZ-12">
          <mxGeometry width="50" height="50" relative="1" as="geometry">
            <mxPoint x="300" y="260" as="sourcePoint" />
            <mxPoint x="350" y="210" as="targetPoint" />
          </mxGeometry>
        </mxCell>
        <mxCell id="3BTfPKExKE7HtDIBicMZ-20" value="Update Order" style="ellipse;whiteSpace=wrap;html=1;align=center;" vertex="1" parent="3BTfPKExKE7HtDIBicMZ-1">
          <mxGeometry x="360" y="230" width="100" height="40" as="geometry" />
        </mxCell>
        <mxCell id="3BTfPKExKE7HtDIBicMZ-21" value="Cancel Order" style="ellipse;whiteSpace=wrap;html=1;align=center;" vertex="1" parent="3BTfPKExKE7HtDIBicMZ-1">
          <mxGeometry x="360" y="280" width="100" height="40" as="geometry" />
        </mxCell>
        <mxCell id="3BTfPKExKE7HtDIBicMZ-22" value="Filter Order" style="ellipse;whiteSpace=wrap;html=1;align=center;" vertex="1" parent="3BTfPKExKE7HtDIBicMZ-1">
          <mxGeometry x="360" y="330" width="100" height="40" as="geometry" />
        </mxCell>
        <mxCell id="3BTfPKExKE7HtDIBicMZ-23" value="Delete Order" style="ellipse;whiteSpace=wrap;html=1;align=center;" vertex="1" parent="3BTfPKExKE7HtDIBicMZ-1">
          <mxGeometry x="360" y="380" width="100" height="40" as="geometry" />
        </mxCell>
        <mxCell id="3BTfPKExKE7HtDIBicMZ-24" value="extends" style="endArrow=classic;html=1;rounded=0;exitX=0;exitY=0.5;exitDx=0;exitDy=0;entryX=1;entryY=0.5;entryDx=0;entryDy=0;dashed=1;" edge="1" parent="3BTfPKExKE7HtDIBicMZ-1" source="3BTfPKExKE7HtDIBicMZ-20" target="3BTfPKExKE7HtDIBicMZ-13">
          <mxGeometry width="50" height="50" relative="1" as="geometry">
            <mxPoint x="300" y="260" as="sourcePoint" />
            <mxPoint x="350" y="210" as="targetPoint" />
          </mxGeometry>
        </mxCell>
        <mxCell id="3BTfPKExKE7HtDIBicMZ-25" value="extends" style="endArrow=classic;html=1;rounded=0;exitX=0;exitY=0.5;exitDx=0;exitDy=0;entryX=1;entryY=0.5;entryDx=0;entryDy=0;dashed=1;" edge="1" parent="3BTfPKExKE7HtDIBicMZ-1" source="3BTfPKExKE7HtDIBicMZ-21" target="3BTfPKExKE7HtDIBicMZ-13">
          <mxGeometry width="50" height="50" relative="1" as="geometry">
            <mxPoint x="300" y="260" as="sourcePoint" />
            <mxPoint x="350" y="210" as="targetPoint" />
          </mxGeometry>
        </mxCell>
        <mxCell id="3BTfPKExKE7HtDIBicMZ-26" value="extends" style="endArrow=classic;html=1;rounded=0;exitX=0;exitY=0.5;exitDx=0;exitDy=0;entryX=1;entryY=0.5;entryDx=0;entryDy=0;dashed=1;" edge="1" parent="3BTfPKExKE7HtDIBicMZ-1" source="3BTfPKExKE7HtDIBicMZ-22" target="3BTfPKExKE7HtDIBicMZ-13">
          <mxGeometry width="50" height="50" relative="1" as="geometry">
            <mxPoint x="300" y="260" as="sourcePoint" />
            <mxPoint x="350" y="210" as="targetPoint" />
          </mxGeometry>
        </mxCell>
        <mxCell id="3BTfPKExKE7HtDIBicMZ-27" value="extends" style="endArrow=classic;html=1;rounded=0;exitX=0;exitY=0.5;exitDx=0;exitDy=0;entryX=1;entryY=0.5;entryDx=0;entryDy=0;dashed=1;" edge="1" parent="3BTfPKExKE7HtDIBicMZ-1" source="3BTfPKExKE7HtDIBicMZ-23" target="3BTfPKExKE7HtDIBicMZ-13">
          <mxGeometry width="50" height="50" relative="1" as="geometry">
            <mxPoint x="300" y="260" as="sourcePoint" />
            <mxPoint x="350" y="210" as="targetPoint" />
          </mxGeometry>
        </mxCell>
        <mxCell id="3BTfPKExKE7HtDIBicMZ-28" value="Create Book" style="ellipse;whiteSpace=wrap;html=1;align=center;" vertex="1" parent="3BTfPKExKE7HtDIBicMZ-1">
          <mxGeometry x="390" y="10" width="100" height="40" as="geometry" />
        </mxCell>
        <mxCell id="3BTfPKExKE7HtDIBicMZ-29" value="Update Book" style="ellipse;whiteSpace=wrap;html=1;align=center;" vertex="1" parent="3BTfPKExKE7HtDIBicMZ-1">
          <mxGeometry x="390" y="60" width="100" height="40" as="geometry" />
        </mxCell>
        <mxCell id="3BTfPKExKE7HtDIBicMZ-30" value="Delete Book" style="ellipse;whiteSpace=wrap;html=1;align=center;" vertex="1" parent="3BTfPKExKE7HtDIBicMZ-1">
          <mxGeometry x="390" y="110" width="100" height="40" as="geometry" />
        </mxCell>
        <mxCell id="3BTfPKExKE7HtDIBicMZ-31" value="Search Book" style="ellipse;whiteSpace=wrap;html=1;align=center;" vertex="1" parent="3BTfPKExKE7HtDIBicMZ-1">
          <mxGeometry x="390" y="160" width="100" height="40" as="geometry" />
        </mxCell>
        <mxCell id="3BTfPKExKE7HtDIBicMZ-32" value="extends" style="endArrow=classic;html=1;rounded=0;exitX=0;exitY=0.5;exitDx=0;exitDy=0;entryX=1;entryY=0.5;entryDx=0;entryDy=0;dashed=1;" edge="1" parent="3BTfPKExKE7HtDIBicMZ-1" source="3BTfPKExKE7HtDIBicMZ-28" target="3BTfPKExKE7HtDIBicMZ-11">
          <mxGeometry width="50" height="50" relative="1" as="geometry">
            <mxPoint x="300" y="260" as="sourcePoint" />
            <mxPoint x="350" y="210" as="targetPoint" />
          </mxGeometry>
        </mxCell>
        <mxCell id="3BTfPKExKE7HtDIBicMZ-33" value="&lt;span style=&quot;color: rgb(0, 0, 0); font-family: Helvetica; font-size: 11px; font-style: normal; font-variant-ligatures: normal; font-variant-caps: normal; font-weight: 400; letter-spacing: normal; orphans: 2; text-align: center; text-indent: 0px; text-transform: none; widows: 2; word-spacing: 0px; -webkit-text-stroke-width: 0px; background-color: rgb(255, 255, 255); text-decoration-thickness: initial; text-decoration-style: initial; text-decoration-color: initial; float: none; display: inline !important;&quot;&gt;extends&lt;/span&gt;" style="endArrow=classic;html=1;rounded=0;exitX=0;exitY=0.5;exitDx=0;exitDy=0;entryX=1;entryY=0.5;entryDx=0;entryDy=0;dashed=1;" edge="1" parent="3BTfPKExKE7HtDIBicMZ-1" source="3BTfPKExKE7HtDIBicMZ-29" target="3BTfPKExKE7HtDIBicMZ-11">
          <mxGeometry width="50" height="50" relative="1" as="geometry">
            <mxPoint x="300" y="260" as="sourcePoint" />
            <mxPoint x="350" y="210" as="targetPoint" />
          </mxGeometry>
        </mxCell>
        <mxCell id="3BTfPKExKE7HtDIBicMZ-34" value="extends" style="endArrow=classic;html=1;rounded=0;exitX=0;exitY=0.5;exitDx=0;exitDy=0;entryX=1;entryY=0.5;entryDx=0;entryDy=0;dashed=1;" edge="1" parent="3BTfPKExKE7HtDIBicMZ-1" source="3BTfPKExKE7HtDIBicMZ-30" target="3BTfPKExKE7HtDIBicMZ-11">
          <mxGeometry width="50" height="50" relative="1" as="geometry">
            <mxPoint x="300" y="260" as="sourcePoint" />
            <mxPoint x="350" y="210" as="targetPoint" />
          </mxGeometry>
        </mxCell>
        <mxCell id="3BTfPKExKE7HtDIBicMZ-35" value="extends" style="endArrow=classic;html=1;rounded=0;exitX=0;exitY=0.5;exitDx=0;exitDy=0;entryX=1;entryY=0.5;entryDx=0;entryDy=0;dashed=1;" edge="1" parent="3BTfPKExKE7HtDIBicMZ-1" source="3BTfPKExKE7HtDIBicMZ-31" target="3BTfPKExKE7HtDIBicMZ-11">
          <mxGeometry width="50" height="50" relative="1" as="geometry">
            <mxPoint x="300" y="260" as="sourcePoint" />
            <mxPoint x="350" y="210" as="targetPoint" />
          </mxGeometry>
        </mxCell>
        <mxCell id="3BTfPKExKE7HtDIBicMZ-2" value="Admin" style="shape=umlActor;verticalLabelPosition=bottom;verticalAlign=top;html=1;" vertex="1" parent="1">
          <mxGeometry x="30" y="200" width="30" height="60" as="geometry" />
        </mxCell>
        <mxCell id="3BTfPKExKE7HtDIBicMZ-5" value="" style="endArrow=none;html=1;rounded=0;" edge="1" parent="1" source="3BTfPKExKE7HtDIBicMZ-2">
          <mxGeometry width="50" height="50" relative="1" as="geometry">
            <mxPoint x="400" y="280" as="sourcePoint" />
            <mxPoint x="120" y="230" as="targetPoint" />
          </mxGeometry>
        </mxCell>
      </root>
    </mxGraphModel>
  </diagram>
</mxfile>
